<svg width="36" height="36" viewBox="0 0 36 36" fill="none" xmlns="http://www.w3.org/2000/svg">
<circle cx="18" cy="18" r="18" fill="#778CEB"/>
<path d="M25.225 26.0998H25.125H23.6806H23.5806V25.9998V22.4278C23.58 21.8996 23.3658 21.3928 22.9844 21.0187C22.6029 20.6445 22.0853 20.4337 21.5449 20.4332C21.5449 20.4332 21.5449 20.4332 21.5448 20.4332M25.225 26.0998L21.5449 20.3332L21.5448 20.4332M25.225 26.0998V25.9998V22.4277V22.4276C25.2238 21.4696 24.8353 20.5516 24.1452 19.8748C23.4552 19.198 22.5201 18.8177 21.5451 18.8165H21.5449L15.7051 18.8165L15.7049 18.8165C14.7299 18.8177 13.7948 19.198 13.1048 19.8748C12.4147 20.5516 12.0262 21.4696 12.025 22.4276V22.4277V25.9998V26.0998H12.125H13.5694H13.6694V25.9998L13.6694 22.4278L25.225 26.0998ZM21.5448 20.4332H15.7052M21.5448 20.4332H15.7052M15.7052 20.4332L15.7051 20.4332L15.7052 20.4332Z" fill="white" stroke="white" stroke-width="0.2"/>
<path d="M18.6247 17.6H18.6248C19.7996 17.5989 20.9263 17.1407 21.7576 16.3254C22.5889 15.51 23.0568 14.404 23.058 13.2501V13.25C23.058 12.3892 22.7978 11.5479 22.3104 10.8325C21.823 10.1171 21.1305 9.55987 20.3206 9.23087C19.5108 8.90187 18.6198 8.81582 17.7601 8.98351C16.9005 9.15121 16.1107 9.5652 15.4905 10.1734C14.8704 10.7816 14.4478 11.5568 14.2766 12.401C14.1054 13.2452 14.1933 14.1202 14.5291 14.9153C14.8649 15.7104 15.4334 16.3896 16.1624 16.8674C16.8914 17.3451 17.7483 17.6 18.6247 17.6ZM17.0745 10.9778C17.5332 10.6772 18.0727 10.5167 18.6247 10.5167C19.365 10.5167 20.0745 10.8051 20.5974 11.3179C21.1202 11.8307 21.4136 12.5257 21.4136 13.25C21.4136 13.7902 21.2503 14.3184 20.9441 14.7678C20.6379 15.2173 20.2024 15.5679 19.6926 15.775C19.1827 15.9821 18.6216 16.0364 18.0802 15.9307C17.5389 15.8251 17.0419 15.5645 16.652 15.1821C16.2621 14.7997 15.9968 14.3127 15.8893 13.7829C15.7819 13.2531 15.837 12.7039 16.0478 12.2046C16.2587 11.7054 16.6159 11.2784 17.0745 10.9778Z" fill="white" stroke="white" stroke-width="0.2"/>
</svg>
