<svg width="32" height="33" viewBox="0 0 32 33" fill="none" xmlns="http://www.w3.org/2000/svg">
<path d="M8 6.8998C8 6.01618 8.71638 5.2998 9.6 5.2998H30.4C31.2836 5.2998 32 6.01618 32 6.8998C32 7.78343 31.2836 8.4998 30.4 8.4998H9.6C8.71638 8.4998 8 7.78337 8 6.8998ZM30.4 14.8998H1.6C0.716375 14.8998 0 15.6162 0 16.4998C0 17.3834 0.716375 18.0998 1.6 18.0998H30.4C31.2836 18.0998 32 17.3834 32 16.4998C32 15.6162 31.2836 14.8998 30.4 14.8998ZM30.4 24.4998H16C15.1164 24.4998 14.4 25.2162 14.4 26.0998C14.4 26.9834 15.1164 27.6998 16 27.6998H30.4C31.2836 27.6998 32 26.9834 32 26.0998C32 25.2162 31.2836 24.4998 30.4 24.4998Z" fill="black"/>
</svg>
