<svg width="272" height="253" viewBox="0 0 272 253" fill="none" xmlns="http://www.w3.org/2000/svg">
<path d="M108.717 246.026C222.504 218.565 292.486 104.06 265.026 -9.72751C237.565 -123.515 123.06 -193.497 9.27249 -166.036C-104.515 -138.576 -174.497 -24.071 -147.036 89.7167C-119.576 203.504 -5.07104 273.486 108.717 246.026Z" stroke="white" stroke-width="0.75" stroke-miterlimit="10"/>
<path d="M240.762 112.962C281.041 12.5788 232.316 -101.451 131.932 -141.73C31.5488 -182.009 -82.4807 -133.284 -122.76 -32.9004C-163.039 67.4832 -114.314 181.513 -13.9304 221.792C86.4532 262.071 200.483 213.346 240.762 112.962Z" stroke="white" stroke-width="0.75" stroke-miterlimit="10"/>
<path d="M100.047 214.523C196.44 191.846 256.198 95.3206 233.521 -1.07205C210.844 -97.4648 114.318 -157.223 17.9256 -134.546C-78.4671 -111.869 -138.225 -15.3436 -115.548 81.0491C-92.8711 177.442 3.65411 237.2 100.047 214.523Z" stroke="white" stroke-width="0.75" stroke-miterlimit="10"/>
<path d="M209.947 100.925C243.576 17.558 203.255 -77.2861 119.888 -110.915C36.5214 -144.544 -58.3227 -104.224 -91.9517 -20.8566C-125.581 62.5104 -85.2602 157.354 -1.89322 190.984C81.4738 224.613 176.318 184.292 209.947 100.925Z" stroke="white" stroke-width="0.75" stroke-miterlimit="10"/>
<path d="M93.0948 182.2C171.634 163.375 220.041 84.4462 201.216 5.90732C182.391 -72.6315 103.462 -121.039 24.9231 -102.214C-53.6157 -83.3889 -102.023 -4.45983 -83.1982 74.079C-64.3731 152.618 14.556 201.025 93.0948 182.2Z" stroke="white" stroke-width="0.75" stroke-miterlimit="10"/>
<path d="M179.178 88.7711C206.095 22.3951 174.107 -53.2339 107.731 -80.1511C41.3554 -107.068 -34.2736 -75.0804 -61.1907 -8.70445C-88.1078 57.6715 -56.1201 133.301 10.2559 160.218C76.6319 187.135 152.261 155.147 179.178 88.7711Z" stroke="white" stroke-width="0.75" stroke-miterlimit="10"/>
<path d="M84.8826 150.597C145.966 136.3 183.894 75.1926 169.597 14.1095C155.3 -46.9736 94.1923 -84.9014 33.1091 -70.6045C-27.974 -56.3077 -65.9018 4.79984 -51.6049 65.883C-37.3081 126.966 23.7995 164.894 84.8826 150.597Z" stroke="white" stroke-width="0.75" stroke-miterlimit="10"/>
<path d="M148.857 76.6651C169.091 27.032 145.258 -29.6063 95.625 -49.8401C45.9919 -70.0739 -10.6465 -46.2411 -30.8803 3.39204C-51.1141 53.0251 -27.2812 109.663 22.3519 129.897C71.985 150.131 128.623 126.298 148.857 76.6651Z" stroke="white" stroke-width="0.75" stroke-miterlimit="10"/>
<path d="M77.6465 118.299C120.903 108.001 147.621 64.586 137.322 21.3295C127.024 -21.9269 83.6095 -48.6448 40.353 -38.3465C-2.90344 -28.0482 -29.6213 15.3665 -19.323 58.623C-9.02467 101.879 34.39 128.597 77.6465 118.299Z" stroke="white" stroke-width="0.75" stroke-miterlimit="10"/>
<path d="M118.2 64.3058C131.602 31.6128 115.963 -5.7543 83.2699 -19.1559C50.5768 -32.5574 13.2097 -16.9186 -0.191833 15.7744C-13.5934 48.4675 2.04541 85.8346 34.7385 99.2361C67.4315 112.638 104.799 96.9989 118.2 64.3058Z" stroke="white" stroke-width="0.75" stroke-miterlimit="10"/>
<path d="M69.7417 86.1853C95.2567 80.2434 111.124 54.7425 105.182 29.2274C99.2401 3.7124 73.7392 -12.1548 48.2241 -6.21288C22.7091 -0.270979 6.84192 25.2299 12.7838 50.745C18.7257 76.26 44.2266 92.1272 69.7417 86.1853Z" stroke="white" stroke-width="0.75" stroke-miterlimit="10"/>
<path d="M90.3429 39.9708C90.3429 22.9978 76.4164 9.07132 59.4435 9.07132C42.4705 9.07132 28.544 22.9978 28.544 39.9708C28.544 56.9437 42.4705 70.8702 59.4435 70.8702C76.4164 71.3054 90.3429 57.3789 90.3429 39.9708Z" stroke="white" stroke-width="0.75" stroke-miterlimit="10"/>
</svg>
